<svg width="29" height="28" viewBox="0 0 29 28" fill="none" xmlns="http://www.w3.org/2000/svg">
<g clip-path="url(#clip0_2973_18668)">
<rect x="3.08496" y="9.75" width="15" height="16" rx="3" fill="#FFF6DC"/>
<path d="M11.085 13.25L7.58496 17.75L7.58496 18.25L9.08496 18.25L9.08496 19.75L9.58496 22.25L14.085 17.75L13.085 17.25L12.085 16.75L12.085 13.75L11.085 13.25Z" fill="white"/>
<path d="M20.3346 11.0689C20.4283 10.0388 21.292 9.25 22.3264 9.25L24.1736 9.25C25.208 9.25 26.0717 10.0388 26.1654 11.0689L26.3017 12.5689C26.4082 13.7402 25.486 14.75 24.3099 14.75L22.1901 14.75C21.014 14.75 20.0918 13.7402 20.1983 12.5689L20.3346 11.0689Z" fill="white"/>
<path fill-rule="evenodd" clip-rule="evenodd" d="M12.0849 3.5C11.4588 3.5 10.9403 3.96032 10.8491 4.56098H11.3554C12.6704 4.56098 13.7609 4.74272 13.7609 6.9663C13.7609 7.4046 13.3974 7.76807 12.9591 7.76807C12.5207 7.76807 12.1572 7.4046 12.1572 6.9663C12.1572 6.40823 12.0819 6.23514 12.0645 6.19526L12.0645 6.19526C12.0623 6.19007 12.061 6.18714 12.061 6.1859C11.9969 6.16452 11.6227 6.16452 11.3554 6.16452H9.21708C8.9498 6.16452 8.58629 6.16453 8.49007 6.20729C8.49198 6.20537 8.49081 6.20962 8.4876 6.22127L8.48759 6.22133L8.48758 6.22134C8.47283 6.27487 8.41523 6.4838 8.41523 6.9663C8.41523 7.4046 8.05172 7.76807 7.61337 7.76807C7.17502 7.76807 6.81151 7.4046 6.81151 6.9663C6.81151 4.74272 7.90204 4.56098 9.21708 4.56098H9.34134C9.43846 3.13037 10.6297 2 12.0849 2H19.2811C21.9044 2 24.0311 4.12665 24.0311 6.75V8.28293L24.1349 8.28287C25.8194 8.28177 27.1858 9.64642 27.1869 11.3309L27.1873 11.9361L27.1885 13.7412C27.1891 14.763 26.3614 15.5918 25.3397 15.5924L25.0794 15.5926C25.0875 15.644 25.0917 15.6967 25.0917 15.7503L25.0917 16.2117C25.0917 16.4879 24.8678 16.7117 24.5916 16.7116L21.9021 16.7113C21.6259 16.7113 21.4021 16.4874 21.4022 16.2113L21.4022 15.7499C21.4022 15.6972 21.4063 15.6455 21.4141 15.595L21.2023 15.5951C20.1806 15.5958 19.3518 14.7681 19.3512 13.7463L19.3496 11.336C19.3485 9.6515 20.7131 8.28508 22.3976 8.28399L22.5311 8.28391V6.75C22.5311 4.95507 21.076 3.5 19.2811 3.5H12.0849ZM22.3985 9.58399C21.432 9.58462 20.649 10.3686 20.6496 11.3351L20.6511 13.7455C20.6513 14.0492 20.8977 14.2953 21.2015 14.2951L25.3388 14.2924C25.6426 14.2923 25.8887 14.0458 25.8885 13.7421L25.8873 11.9369L25.8869 11.3317C25.8863 10.3652 25.1023 9.58224 24.1358 9.58287L22.3985 9.58399ZM18.5715 14.5092V20.9234C18.5715 25.6378 17.1389 27.0703 12.424 27.0703H8.14738C3.43246 27.0703 1.99981 25.6378 1.99981 20.9234V14.5092C1.99981 9.79482 3.43246 8.36232 8.14738 8.36232L12.424 8.36232C17.1389 8.36232 18.5715 9.79482 18.5715 14.5092ZM3.60352 20.9234C3.60352 24.7505 4.33054 25.4668 8.14738 25.4668H12.424C16.2408 25.4668 16.9678 24.7505 16.9678 20.9234V14.5092C16.9678 10.6821 16.2408 9.96586 12.424 9.96586H8.14738C4.33054 9.96586 3.60352 10.6821 3.60352 14.5092V20.9234ZM9.74802 22.9052C9.60666 22.9052 9.47361 22.8803 9.33224 22.8304C8.87489 22.6558 8.57556 22.2317 8.57556 21.7412V18.9973H7.76064C7.29496 18.9973 6.8875 18.7313 6.69624 18.3155C6.50499 17.8915 6.57983 17.4176 6.8875 17.0683L10.4299 13.0441C10.7542 12.6782 11.2531 12.5535 11.7105 12.7281C12.1678 12.9027 12.4672 13.3268 12.4672 13.8173V16.5611H13.2905C13.7561 16.5611 14.1636 16.8272 14.3548 17.2429C14.5461 17.667 14.4713 18.1409 14.1636 18.4901L10.6212 22.5144C10.3883 22.7639 10.0723 22.9052 9.74802 22.9052ZM7.94358 17.7501H9.19919C9.54013 17.7501 9.82286 18.0328 9.82286 18.3737V21.5167L13.0992 17.8H11.8435C11.5026 17.8 11.2199 17.5173 11.2199 17.1764V14.0335L7.94358 17.7501Z" fill="#EBBE37"/>
</g>
<defs>
<clipPath id="clip0_2973_18668">
<rect width="28" height="28.003" fill="white" transform="translate(0 28) rotate(-90)"/>
</clipPath>
</defs>
</svg>
